HIERARCHY
ROOT Hips
{
 OFFSET 0.000000 0.000000 0.000000
 CHANNELS 6 Xposition Yposition Zposition Yrotation Xrotation Zrotation
 JOINT Chest
 {
  OFFSET 0.000000 10.383400 0.001500
  CHANNELS 3 Yrotation Xrotation Zrotation
  JOINT Chest2
  {
   OFFSET 0.000000 10.418200 -0.003100
   CHANNELS 3 Yrotation Xrotation Zrotation
   JOINT Chest3
   {
    OFFSET 0.000000 10.375100 0.000000
    CHANNELS 3 Yrotation Xrotation Zrotation
    JOINT Chest4
    {
     OFFSET 0.000000 10.364600 0.000000
     CHANNELS 3 Yrotation Xrotation Zrotation
     JOINT Neck
     {
      OFFSET 0.000000 15.642200 0.000000
      CHANNELS 3 Yrotation Xrotation Zrotation
      JOINT Head
      {
       OFFSET 0.000000 9.697300 -0.006500
       CHANNELS 3 Yrotation Xrotation Zrotation
       End Site
       {
        OFFSET 0.000000 18.492200 -0.003400
       }
      }
     }
     JOINT RightCollar
     {
      OFFSET -3.166800 10.349300 0.000000
      CHANNELS 3 Yrotation Xrotation Zrotation
      JOINT RightShoulder
      {
       OFFSET -14.729700 0.000000 0.000000
       CHANNELS 3 Yrotation Xrotation Zrotation
       JOINT RightElbow
       {
        OFFSET 0.000000 -32.224300 0.000000
        CHANNELS 3 Yrotation Xrotation Zrotation
        JOINT RightWrist
        {
         OFFSET 0.000000 -26.084100 0.000000
         CHANNELS 3 Yrotation Xrotation Zrotation
         End Site
         {
          OFFSET 0.000000 -19.319400 0.000000
         }
        }
       }
      }
     }
     JOINT LeftCollar
     {
      OFFSET 3.166800 10.349300 0.000000
      CHANNELS 3 Yrotation Xrotation Zrotation
      JOINT LeftShoulder
      {
       OFFSET 14.729700 0.000000 0.000000
       CHANNELS 3 Yrotation Xrotation Zrotation
       JOINT LeftElbow
       {
        OFFSET 0.000000 -32.224300 0.000000
        CHANNELS 3 Yrotation Xrotation Zrotation
        JOINT LeftWrist
        {
         OFFSET 0.000000 -26.084100 0.000000
         CHANNELS 3 Yrotation Xrotation Zrotation
         End Site
         {
          OFFSET 0.000000 -19.319400 0.000000
         }
        }
       }
      }
     }
    }
   }
  }
 }
 JOINT RightHip
 {
  OFFSET -8.428900 -0.007500 -0.000800
  CHANNELS 3 Yrotation Xrotation Zrotation
  JOINT RightKnee
  {
   OFFSET 0.000000 -43.834600 0.000700
   CHANNELS 3 Yrotation Xrotation Zrotation
   JOINT RightAnkle
   {
    OFFSET 0.000000 -42.757000 0.001200
    CHANNELS 3 Yrotation Xrotation Zrotation
    JOINT RightToe
    {
     OFFSET 0.000000 -6.946900 15.649300
     CHANNELS 3 Yrotation Xrotation Zrotation
     End Site
     {
      OFFSET 0.000000 -1.580800 6.825800
     }
    }
   }
  }
 }
 JOINT LeftHip
 {
  OFFSET 8.428900 -0.007500 -0.000800
  CHANNELS 3 Yrotation Xrotation Zrotation
  JOINT LeftKnee
  {
   OFFSET 0.000000 -43.834600 0.000700
   CHANNELS 3 Yrotation Xrotation Zrotation
   JOINT LeftAnkle
   {
    OFFSET 0.000000 -42.757000 0.001200
    CHANNELS 3 Yrotation Xrotation Zrotation
    JOINT LeftToe
    {
     OFFSET 0.000000 -6.946900 15.649300
     CHANNELS 3 Yrotation Xrotation Zrotation
     End Site
     {
      OFFSET 0.000000 -1.580800 6.825800
     }
    }
   }
  }
 }
}
MOTION
Frames: 14
Frame Time: 0.008333
0.000000 93.354300 0.000000 0.000000 -5.767877 0.000000 0.000000 11.653817 0.000000 0.000000 -5.885947 0.000000 0.000000 -0.000000 0.000000 0.000000 -0.000000 0.000000 0.000000 12.528835 0.000000 0.000000 0.711642 0.000000 0.000000 -0.000000 0.000000 0.000000 0.000000 -90.000000 0.000000 -2.309062 0.000000 0.000000 2.309062 0.000000 0.000000 -0.000000 0.000000 0.000000 -0.000000 90.000000 0.000000 -2.309062 0.000000 0.000000 2.309062 0.000000 0.000000 8.520406 0.000000 0.000000 1.905762 0.000000 -0.000000 -4.658285 0.000000 0.000000 -0.000000 0.000000 0.000000 8.520406 0.000000 0.000000 1.905762 0.000000 -0.000000 -4.658285 0.000000 0.000000 -0.000000 0.000000
24.604545 126.996771 -53.452342 -16.260688 -29.485074 -1.226571 -0.662639 16.291266 2.356767 -0.086524 1.641857 0.235629 -0.156015 2.739458 0.404402 -0.625415 14.407028 2.099277 2.128666 14.895688 -1.418473 4.507571 -8.027063 -3.424809 -3.275649 -4.026111 -4.451187 8.934059 -9.677130 -7.163883 27.900927 -46.905896 -4.304172 7.785039 6.146800 -15.976265 -1.990973 -6.855937 -3.928524 -4.840767 -4.749178 7.723600 -31.627063 -50.002312 10.437880 -28.554578 7.443731 15.350277 -3.541950 -38.244649 -1.319839 -70.279912 84.984134 -70.585700 0.644168 -17.922340 4.222418 0.005300 0.002177 0.002353 -3.660189 -30.878308 -1.121766 -4.231819 79.240627 -0.779114 -9.218385 -17.414276 -2.676912 0.000676 0.001743 0.000300
24.604469 126.997307 -53.454498 -16.263571 -29.493943 -1.229044 -0.663078 16.298995 2.363240 -0.093518 1.641807 0.240227 -0.156962 2.744718 0.407202 -0.629730 14.416475 2.102423 2.137685 14.888945 -1.429377 4.514961 -7.996619 -3.385070 -3.273129 -4.024592 -4.464714 8.911855 -9.666496 -7.140647 27.951684 -46.938565 -4.347519 7.796027 6.166209 -15.960809 -1.974109 -6.846474 -3.922305 -4.797496 -4.746775 7.732535 -31.618410 -50.036204 10.368456 -28.513006 7.427088 15.362128 -3.544182 -38.234407 -1.313895 -70.168533 84.978385 -70.484812 0.642970 -17.921257 4.224978 0.003378 0.002818 0.001500 -3.645328 -30.875907 -1.126540 -4.212141 79.239495 -0.751262 -9.218178 -17.405930 -2.674914 -0.000067 0.001452 -0.000030
24.604145 126.999418 -53.454218 -16.252090 -29.521275 -1.234959 -0.675381 16.326350 2.366462 -0.097940 1.644868 0.245616 -0.159837 2.749826 0.409179 -0.628297 14.413328 2.094699 2.137035 14.909343 -1.401789 4.527039 -7.983164 -3.372102 -3.277649 -4.014186 -4.466305 8.909306 -9.673293 -7.136963 27.957684 -46.960643 -4.356736 7.810174 6.198151 -15.938079 -1.961400 -6.830689 -3.904137 -4.746882 -4.737869 7.729341 -31.655628 -50.079176 10.349823 -28.503467 7.424249 15.369765 -3.553535 -38.205140 -1.310845 -70.008467 84.976053 -70.347614 0.634959 -17.914500 4.232903 -0.004582 -0.000633 -0.002034 -3.635410 -30.854772 -1.135919 -4.181867 79.237750 -0.710948 -9.233588 -17.397468 -2.668197 -0.001171 0.000380 -0.000520
24.603899 127.000651 -53.455789 -16.244898 -29.539900 -1.239513 -0.689094 16.340831 2.369820 -0.100378 1.640704 0.254211 -0.162429 2.758090 0.409859 -0.633662 14.424076 2.095404 2.144121 14.919533 -1.391848 4.531947 -7.964822 -3.353270 -3.282408 -3.996318 -4.479888 8.883079 -9.673494 -7.101378 28.011348 -47.007363 -4.415136 7.840780 6.239462 -15.910933 -1.940514 -6.824015 -3.900758 -4.691168 -4.725054 7.716366 -31.678162 -50.115014 10.324930 -28.512079 7.418116 15.381540 -3.560177 -38.185056 -1.307487 -69.945235 84.971848 -70.295085 0.629076 -17.913861 4.237186 -0.005033 -0.000303 -0.002234 -3.599184 -30.844981 -1.149956 -4.190067 79.238099 -0.694521 -9.247321 -17.387533 -2.660009 -0.000599 -0.001858 -0.000266
24.603600 127.001176 -53.458778 -16.241491 -29.551723 -1.242600 -0.691427 16.344292 2.378747 -0.103198 1.642235 0.253358 -0.164403 2.761508 0.413232 -0.648560 14.439371 2.108928 2.151190 14.941989 -1.366971 4.535960 -7.959153 -3.360536 -3.310806 -3.966470 -4.490317 8.881396 -9.694096 -7.082863 28.067556 -47.045189 -4.470072 7.874530 6.314241 -15.858399 -1.921919 -6.817776 -3.905985 -4.660212 -4.729946 7.697085 -31.678483 -50.131312 10.306686 -28.501558 7.413666 15.394194 -3.554171 -38.172778 -1.301303 -69.915400 84.960069 -70.270316 0.618319 -17.911810 4.243765 -0.002539 0.000656 -0.001127 -3.586623 -30.839078 -1.154109 -4.170923 79.236901 -0.668988 -9.245350 -17.382395 -2.662994 -0.000177 -0.001157 -0.000079
24.603600 127.002709 -53.459747 -16.231539 -29.575936 -1.242010 -0.704252 16.352550 2.382841 -0.101296 1.653096 0.250167 -0.166245 2.765306 0.413684 -0.654151 14.443927 2.104673 2.150484 14.955659 -1.349102 4.533768 -7.941443 -3.336781 -3.328958 -3.951661 -4.484932 8.859724 -9.695215 -7.058726 28.130135 -47.110299 -4.555674 7.920586 6.428929 -15.752991 -1.918333 -6.800644 -3.890577 -4.629514 -4.737126 7.677892 -31.652442 -50.144660 10.294489 -28.510993 7.395747 15.394106 -3.545790 -38.147885 -1.308910 -69.868718 84.953512 -70.226279 0.607666 -17.907978 4.249735 -0.001469 0.000176 -0.000652 -3.585363 -30.816189 -1.163177 -4.169557 79.231630 -0.664537 -9.243085 -17.385899 -2.675892 -0.000442 -0.001309 -0.000196
24.604322 127.003843 -53.461089 -16.216726 -29.596567 -1.238450 -0.719208 16.371507 2.373852 -0.099091 1.651352 0.255542 -0.167968 2.768869 0.413912 -0.662676 14.448304 2.100762 2.150768 14.964032 -1.337472 4.533152 -7.936881 -3.330813 -3.334502 -3.947931 -4.484639 8.826977 -9.695435 -7.030681 28.217394 -47.136390 -4.634374 7.947852 6.515815 -15.672121 -1.907546 -6.783875 -3.876709 -4.587491 -4.731505 7.658198 -31.703320 -50.175238 10.319033 -28.481503 7.416712 15.431467 -3.535747 -38.128373 -1.323283 -69.840966 84.948084 -70.198615 0.595738 -17.902684 4.256128 0.000882 -0.000856 0.000392 -3.575448 -30.797735 -1.176122 -4.194069 79.226013 -0.684127 -9.252814 -17.381813 -2.677054 -0.000433 -0.000364 -0.000192
24.604549 127.004528 -53.463256 -16.205708 -29.612687 -1.235030 -0.729177 16.382074 2.371974 -0.097254 1.654803 0.253727 -0.169147 2.770368 0.415531 -0.673113 14.464171 2.105947 2.152055 14.953480 -1.346162 4.527744 -7.924940 -3.310988 -3.336169 -3.955779 -4.491403 8.804831 -9.698714 -7.008017 28.298774 -47.156633 -4.714331 7.978641 6.609107 -15.588559 -1.894565 -6.776594 -3.875119 -4.548757 -4.695277 7.622845 -31.791779 -50.222842 10.400180 -28.478136 7.431021 15.450266 -3.524354 -38.114569 -1.334251 -69.834927 84.943150 -70.191197 0.585189 -17.897092 4.263428 0.003134 -0.001755 0.001391 -3.560349 -30.781620 -1.173281 -4.242034 79.215967 -0.741686 -9.273002 -17.376143 -2.664777 -0.000293 0.001672 -0.000130
24.604476 127.005352 -53.465041 -16.196628 -29.630705 -1.230075 -0.731110 16.395074 2.371087 -0.103836 1.658879 0.248609 -0.169883 2.769244 0.420655 -0.679764 14.472114 2.104793 2.150577 14.965715 -1.334822 4.514121 -7.909970 -3.282600 -3.361204 -3.934070 -4.481694 8.813055 -9.727465 -7.003398 28.374200 -47.172045 -4.789474 8.011341 6.708695 -15.506493 -1.893172 -6.766558 -3.868301 -4.538778 -4.699843 7.603762 -31.812661 -50.233208 10.448146 -28.479325 7.429072 15.439103 -3.510816 -38.098429 -1.346965 -69.849613 84.939896 -70.202609 0.574540 -17.896223 4.266067 0.003880 -0.002944 0.001722 -3.557727 -30.762549 -1.176064 -4.261214 79.209220 -0.769232 -9.277708 -17.373943 -2.665443 -0.000969 0.002772 -0.000430
24.604442 127.006138 -53.466607 -16.188962 -29.648427 -1.222622 -0.740045 16.403404 2.364714 -0.104511 1.660818 0.248944 -0.171564 2.776600 0.422743 -0.687142 14.480816 2.102401 2.144441 14.987187 -1.307704 4.492599 -7.864855 -3.230138 -3.363791 -3.931701 -4.482495 8.807971 -9.739076 -6.990063 28.436664 -47.181662 -4.851072 8.051099 6.803514 -15.432129 -1.886973 -6.761665 -3.868796 -4.533086 -4.701815 7.588823 -31.835072 -50.240788 10.482924 -28.479496 7.433796 15.444181 -3.493490 -38.082970 -1.365698 -69.881899 84.937951 -70.227418 0.567782 -17.896291 4.266238 0.004218 -0.003730 0.001872 -3.555956 -30.743616 -1.184636 -4.271285 79.203843 -0.781982 -9.282352 -17.372560 -2.672644 -0.002144 0.002649 -0.000952
24.604361 127.006697 -53.468281 -16.182687 -29.663426 -1.213938 -0.747595 16.412468 2.361035 -0.105036 1.662293 0.255525 -0.173641 2.782678 0.416322 -0.693506 14.487430 2.097810 2.145762 14.983970 -1.308798 4.482324 -7.843115 -3.203329 -3.364868 -3.933454 -4.483349 8.814972 -9.751398 -6.973542 28.464983 -47.171736 -4.887326 8.103540 6.884121 -15.371275 -1.873388 -6.757820 -3.872456 -4.543199 -4.695656 7.567898 -31.878229 -50.250650 10.550223 -28.470992 7.453784 15.460294 -3.474436 -38.071392 -1.388077 -69.912575 84.937603 -70.247430 0.563143 -17.894449 4.263666 0.003733 -0.004785 0.001657 -3.555953 -30.727108 -1.185142 -4.313914 79.198500 -0.833061 -9.297447 -17.371140 -2.673145 -0.002089 0.002595 -0.000927
24.604193 127.007065 -53.469981 -16.178296 -29.675728 -1.204201 -0.754516 16.421232 2.357460 -0.105099 1.663935 0.257965 -0.175013 2.786016 0.413877 -0.696698 14.488682 2.090159 2.140691 15.001391 -1.292479 4.469664 -7.830644 -3.188649 -3.367458 -3.935379 -4.481380 8.824624 -9.761175 -6.968163 28.521540 -47.179455 -4.947161 8.126252 6.978143 -15.301065 -1.869118 -6.757180 -3.875753 -4.547920 -4.680320 7.553742 -31.919810 -50.262586 10.623999 -28.470903 7.465594 15.464650 -3.457163 -38.062549 -1.410359 -69.941415 84.938897 -70.267224 0.560932 -17.895632 4.260044 0.002448 -0.006215 0.001087 -3.560488 -30.712976 -1.166779 -4.413278 79.191177 -0.963329 -9.319164 -17.366991 -2.653980 -0.000113 0.003342 -0.000050
24.604598 127.007172 -53.471622 -16.174038 -29.684198 -1.191000 -0.760535 16.423345 2.360647 -0.107836 1.668914 0.248463 -0.176233 2.788389 0.413470 -0.701458 14.495147 2.087541 2.134915 15.010889 -1.284564 4.457866 -7.817510 -3.174340 -3.364174 -3.945889 -4.485009 8.838371 -9.771095 -6.960082 28.567232 -47.175598 -4.996627 8.147002 7.066785 -15.240764 -1.861838 -6.755534 -3.888692 -4.541096 -4.659565 7.537996 -31.999012 -50.293281 10.749500 -28.468275 7.480567 15.446168 -3.441693 -38.058438 -1.434807 -69.976514 84.942352 -70.296968 0.558664 -17.896769 4.259306 0.001603 -0.006776 0.000711 -3.557698 -30.703400 -1.167943 -4.424153 79.184967 -0.995937 -9.326304 -17.360961 -2.651002 -0.002026 0.002763 -0.000899
